<?xml version="1.0" encoding="UTF-8" standalone="no" ?>
<!DOCTYPE svg PUBLIC "-//W3C//DTD SVG 1.1//EN" "http://www.w3.org/Graphics/SVG/1.1/DTD/svg11.dtd">
<svg xmlns="http://www.w3.org/2000/svg" xmlns:xlink="http://www.w3.org/1999/xlink" version="1.1" width="1080" height="1080" viewBox="0 0 1080 1080" xml:space="preserve">
<desc>Created with Fabric.js 5.2.4</desc>
<defs>
</defs>
<rect x="0" y="0" width="100%" height="100%" fill="transparent"></rect>
<g transform="matrix(1 0 0 1 540 540)" id="4b2cd6ca-287a-4db4-a711-404e45d632dd"  >
<rect style="stroke: none; stroke-width: 1; stroke-dasharray: none; stroke-linecap: butt; stroke-dashoffset: 0; stroke-linejoin: miter; stroke-miterlimit: 4; fill: rgb(255,255,255); fill-rule: nonzero; opacity: 1; visibility: hidden;" vector-effect="non-scaling-stroke"  x="-540" y="-540" rx="0" ry="0" width="1080" height="1080" />
</g>
<g transform="matrix(1 0 0 1 540 540)" id="5e3797af-0443-49f2-8482-abe57ea8830d"  >
</g>
<g transform="matrix(15 0 0 15 541.14 539.03)" id="2a1f31c4-53fe-46df-9873-b14c07dd4810"  >
<circle style="stroke: rgb(0,0,0); stroke-width: 0; stroke-dasharray: none; stroke-linecap: butt; stroke-dashoffset: 0; stroke-linejoin: miter; stroke-miterlimit: 4; fill: rgb(255,255,255); fill-rule: nonzero; opacity: 1;" vector-effect="non-scaling-stroke"  cx="0" cy="0" r="35" />
</g>
<g transform="matrix(0.42 0 0 0.42 540 469.58)"  >
<path style="stroke: rgb(0,0,0); stroke-width: 0; stroke-dasharray: none; stroke-linecap: butt; stroke-dashoffset: 0; stroke-linejoin: miter; stroke-miterlimit: 4; fill: rgb(0,0,0); fill-rule: nonzero; opacity: 1;" vector-effect="non-scaling-stroke"  transform=" translate(-21, -850)" d="M 0 0 L 37 0 L 62 2 L 90 7 L 122 15 L 151 25 L 169 33 L 192 46 L 216 62 L 229 72 L 240 81 L 252 92 L 273 113 L 284 127 L 297 144 L 309 163 L 318 179 L 327 196 L 338 223 L 346 250 L 351 272 L 354 291 L 356 316 L 357 355 L 357 382 L 539 383 L 564 385 L 580 388 L 593 393 L 605 400 L 616 411 L 623 422 L 631 437 L 642 464 L 654 498 L 666 538 L 689 627 L 703 682 L 720 748 L 732 794 L 743 836 L 762 911 L 807 1091 L 826 1165 L 844 1234 L 859 1293 L 879 1369 L 892 1413 L 904 1454 L 914 1487 L 922 1524 L 926 1548 L 929 1581 L 929 1600 L 926 1624 L 921 1642 L 914 1656 L 904 1669 L 893 1679 L 878 1688 L 862 1694 L 844 1698 L 829 1700 L 798 1700 L 768 1697 L 741 1691 L 718 1684 L 694 1675 L 678 1668 L 655 1655 L 641 1646 L 629 1637 L 618 1628 L 605 1617 L 590 1602 L 581 1591 L 571 1579 L 558 1560 L 546 1540 L 538 1525 L 525 1493 L 517 1468 L 512 1444 L 509 1414 L 509 1400 L 512 1371 L 519 1343 L 527 1322 L 540 1294 L 553 1270 L 566 1248 L 576 1232 L 587 1215 L 608 1182 L 619 1163 L 625 1149 L 627 1140 L 627 1117 L 624 1105 L 617 1091 L 609 1081 L 600 1073 L 588 1066 L 577 1062 L 563 1060 L 548 1060 L 533 1063 L 521 1069 L 511 1077 L 504 1084 L 494 1099 L 480 1121 L 468 1138 L 458 1151 L 447 1165 L 436 1178 L 427 1188 L 416 1200 L 401 1215 L 393 1222 L 381 1233 L 370 1242 L 355 1254 L 337 1267 L 317 1280 L 302 1289 L 280 1301 L 261 1311 L 227 1325 L 193 1337 L 167 1344 L 129 1352 L 96 1357 L 45 1362 L 2 1362 L -54 1357 L -89 1352 L -123 1345 L -149 1338 L -187 1324 L -221 1310 L -245 1298 L -270 1283 L -303 1261 L -317 1250 L -328 1241 L -338 1232 L -346 1225 L -361 1211 L -374 1199 L -374 1197 L -377 1196 L -382 1191 L -391 1181 L -398 1173 L -408 1161 L -421 1144 L -435 1125 L -445 1109 L -459 1088 L -468 1078 L -477 1070 L -491 1063 L -505 1060 L -526 1060 L -543 1064 L -556 1072 L -568 1083 L -577 1096 L -582 1107 L -585 1126 L -584 1141 L -579 1156 L -569 1174 L -557 1194 L -544 1215 L -529 1239 L -516 1260 L -503 1283 L -493 1302 L -482 1328 L -474 1352 L -469 1377 L -467 1393 L -467 1417 L -469 1436 L -474 1462 L -480 1485 L -488 1507 L -496 1525 L -506 1544 L -520 1566 L -538 1590 L -549 1602 L -558 1612 L -566 1619 L -576 1628 L -593 1641 L -603 1648 L -620 1659 L -647 1673 L -670 1682 L -691 1689 L -716 1695 L -735 1698 L -757 1700 L -789 1700 L -811 1697 L -828 1692 L -844 1684 L -855 1676 L -862 1670 L -871 1658 L -879 1641 L -884 1624 L -886 1614 L -887 1604 L -887 1578 L -885 1555 L -880 1525 L -873 1493 L -863 1456 L -843 1391 L -833 1356 L -816 1291 L -805 1248 L -782 1161 L -770 1116 L -759 1069 L -746 1019 L -735 977 L -719 913 L -700 838 L -689 796 L -673 732 L -656 663 L -639 596 L -630 561 L -618 518 L -606 481 L -593 446 L -584 427 L -577 416 L -566 404 L -556 396 L -543 390 L -529 386 L -516 384 L -502 383 L -333 382 L -315 381 L -314 312 L -311 282 L -304 248 L -293 215 L -284 195 L -273 173 L -265 160 L -255 145 L -245 131 L -236 120 L -227 110 L -220 102 L -202 84 L -191 75 L -173 61 L -153 48 L -137 39 L -118 29 L -95 20 L -80 15 L -44 6 L -23 2 z M 7 107 L -18 110 L -44 116 L -65 123 L -85 132 L -104 144 L -117 153 L -127 161 L -140 173 L -148 181 L -157 192 L -167 205 L -179 224 L -187 240 L -195 260 L -202 283 L -206 308 L -207 323 L -208 358 L -208 382 L -202 383 L 243 383 L 250 382 L 251 380 L 251 347 L 249 313 L 246 292 L 241 271 L 233 248 L 222 225 L 212 209 L 199 191 L 187 178 L 171 162 L 158 152 L 143 142 L 122 130 L 103 122 L 80 115 L 63 111 L 33 107 z M 6 846 L -12 848 L -35 853 L -55 860 L -68 866 L -81 873 L -93 881 L -104 889 L -119 902 L -132 915 L -143 929 L -152 942 L -159 954 L -169 977 L -176 1002 L -179 1017 L -180 1026 L -180 1061 L -177 1083 L -172 1104 L -164 1126 L -153 1147 L -142 1163 L -133 1174 L -124 1184 L -110 1198 L -96 1209 L -81 1219 L -69 1226 L -47 1236 L -31 1241 L -9 1245 L 0 1246 L 32 1246 L 53 1244 L 73 1240 L 90 1235 L 110 1226 L 125 1218 L 140 1208 L 150 1200 L 160 1191 L 173 1178 L 184 1164 L 192 1153 L 201 1137 L 208 1122 L 215 1102 L 220 1082 L 222 1067 L 222 1030 L 219 1009 L 214 988 L 206 966 L 198 949 L 187 932 L 177 919 L 166 907 L 154 895 L 141 885 L 119 871 L 94 859 L 76 853 L 60 849 L 48 847 L 37 846 z M -678 1370 L -694 1373 L -709 1379 L -723 1388 L -737 1400 L -749 1415 L -757 1429 L -763 1445 L -765 1455 L -765 1485 L -761 1501 L -755 1516 L -748 1528 L -737 1541 L -727 1550 L -712 1560 L -701 1565 L -685 1569 L -678 1570 L -648 1570 L -634 1567 L -622 1562 L -608 1554 L -599 1547 L -592 1541 L -592 1539 L -589 1538 L -578 1523 L -571 1507 L -567 1494 L -565 1477 L -565 1460 L -567 1446 L -573 1428 L -581 1414 L -593 1400 L -605 1390 L -621 1380 L -635 1374 L -653 1370 z M 696 1370 L 681 1373 L 666 1378 L 652 1387 L 642 1395 L 637 1400 L 626 1412 L 616 1428 L 611 1442 L 608 1460 L 608 1483 L 612 1503 L 619 1519 L 626 1530 L 637 1542 L 648 1552 L 666 1563 L 676 1567 L 690 1570 L 704 1571 L 729 1569 L 744 1565 L 760 1557 L 772 1548 L 786 1534 L 796 1519 L 802 1504 L 806 1488 L 808 1469 L 806 1449 L 801 1433 L 794 1419 L 786 1408 L 776 1397 L 763 1387 L 748 1378 L 735 1373 L 718 1370 z" stroke-linecap="round" />
</g>
</svg>