<?xml version="1.0" encoding="UTF-8"?>
<svg version="1.1" viewBox="0 0 2048 1805" width="532" height="469" xmlns="http://www.w3.org/2000/svg">
<path transform="translate(1013,42)" d="m0 0h37l25 2 28 5 32 8 29 10 18 8 23 13 24 16 13 10 11 9 12 11 21 21 11 14 13 17 12 19 9 16 9 17 11 27 8 27 5 22 3 19 2 25 1 39v27l182 1 25 2 16 3 13 5 12 7 11 11 7 11 8 15 11 27 12 34 12 40 23 89 14 55 17 66 12 46 11 42 19 75 45 180 19 74 18 69 15 59 20 76 13 44 12 41 10 33 8 37 4 24 3 33v19l-3 24-5 18-7 14-10 13-11 10-15 9-16 6-18 4-15 2h-31l-30-3-27-6-23-7-24-9-16-7-23-13-14-9-12-9-11-9-13-11-15-15-9-11-10-12-13-19-12-20-8-15-13-32-8-25-5-24-3-30v-14l3-29 7-28 8-21 13-28 13-24 13-22 10-16 11-17 21-33 11-19 6-14 2-9v-23l-3-12-7-14-8-10-9-8-12-7-11-4-14-2h-15l-15 3-12 6-10 8-7 7-10 15-14 22-12 17-10 13-11 14-11 13-9 10-11 12-15 15-8 7-12 11-11 9-15 12-18 13-20 13-15 9-22 12-19 10-34 14-34 12-26 7-38 8-33 5-51 5h-43l-56-5-35-5-34-7-26-7-38-14-34-14-24-12-25-15-33-22-14-11-11-9-10-9-8-7-15-14-13-12v-2l-3-1-5-5-9-10-7-8-10-12-13-17-14-19-10-16-14-21-9-10-9-8-14-7-14-3h-21l-17 4-13 8-12 11-9 13-5 11-3 19 1 15 5 15 10 18 12 20 13 21 15 24 13 21 13 23 10 19 11 26 8 24 5 25 2 16v24l-2 19-5 26-6 23-8 22-8 18-10 19-14 22-18 24-11 12-9 10-8 7-10 9-17 13-10 7-17 11-27 14-23 9-21 7-25 6-19 3-22 2h-32l-22-3-17-5-16-8-11-8-7-6-9-12-8-17-5-17-2-10-1-10v-26l2-23 5-30 7-32 10-37 20-65 10-35 17-65 11-43 23-87 12-45 11-47 13-50 11-42 16-64 19-75 11-42 16-64 17-69 17-67 9-35 12-43 12-37 13-35 9-19 7-11 11-12 10-8 13-6 14-4 13-2 14-1 169-1 18-1 1-69 3-30 7-34 11-33 9-20 11-22 8-13 10-15 10-14 9-11 9-10 7-8 18-18 11-9 18-14 20-13 16-9 19-10 23-9 15-5 36-9 21-4zm7 107-25 3-26 6-21 7-20 9-19 12-13 9-10 8-13 12-8 8-9 11-10 13-12 19-8 16-8 20-7 23-4 25-1 15-1 35v24l6 1h445l7-1 1-2v-33l-2-34-3-21-5-21-8-23-11-23-10-16-13-18-12-13-16-16-13-10-15-10-21-12-19-8-23-7-17-4-30-4zm-1 739-18 2-23 5-20 7-13 6-13 7-12 8-11 8-15 13-13 13-11 14-9 13-7 12-10 23-7 25-3 15-1 9v35l3 22 5 21 8 22 11 21 11 16 9 11 9 10 14 14 14 11 15 10 12 7 22 10 16 5 22 4 9 1h32l21-2 20-4 17-5 20-9 15-8 15-10 10-8 10-9 13-13 11-14 8-11 9-16 7-15 7-20 5-20 2-15v-37l-3-21-5-21-8-22-8-17-11-17-10-13-11-12-12-12-13-10-22-14-25-12-18-6-16-4-12-2-11-1zm-684 524-16 3-15 6-14 9-14 12-12 15-8 14-6 16-2 10v30l4 16 6 15 7 12 11 13 10 9 15 10 11 5 16 4 7 1h30l14-3 12-5 14-8 9-7 7-6v-2l3-1 11-15 7-16 4-13 2-17v-17l-2-14-6-18-8-14-12-14-12-10-16-10-14-6-18-4zm1374 0-15 3-15 5-14 9-10 8-5 5-11 12-10 16-5 14-3 18v23l4 20 7 16 7 11 11 12 11 10 18 11 10 4 14 3 14 1 25-2 15-4 16-8 12-9 14-14 10-15 6-15 4-16 2-19-2-20-5-16-7-14-8-11-10-11-13-10-15-9-13-5-17-3z"/>
</svg>
