<svg xmlns:xlink="http://www.w3.org/1999/xlink" xmlns="http://www.w3.org/2000/svg" version="1.1"
    viewBox="710 600 600 600" width="250" height="200" preserveAspectRatio="xMidYMid meet">
    <path transform="translate(912,645)"
        d="m0 0 1 4-5 36-6 20-5 15-8 16-7 11-11 12-12 11-15 9-17 7-9 2 1 5 9 22 11 21 13 18 11 12 6 7 17 13 18 10 24 8 13 3 8 1h22l21-4 27-8 22-9 21-11 22-14 20-14 16-13 16-12 12-10 21-14 16-9 21-7 13-2h19l18 3 24 7 32 14 24 12 5 5-3 11-11 28-10 21-13 23-9 15-7 9-10 14-11 13-9 11-25 25-14 11-11 9-18 13-24 14-16 9-5 2-8 16-8 15-8 12-10 14-12 13-7 7-12 9-15 8-18 6-12 3h-4l2-6 7-18 8-21 7-19 3-9-32 3h-52l-21-2-16-3-25-7-24-10-21-11-13-9-13-10-12-11-15-16-10-14-13-22-9-20-8-25-4-20-4-22-2-20v-25l3-30 3-18-9-2-24-11-11-8-10-9-10-11-8-13-8-17-5-15-6-23-4-27v-5l5 2 15 15 14 10 17 9 46 14 14 6 7 5 20-10 16-5 29-9 21-10 12-9 10-9 4-5zm-215 42 3 11 4 12 8 16 9 14 9 10 14 10 22 11 6 1 6-22 6-25-1-5-15-7-54-18zm191 1-17 8-36 12-20 7-12 6 1 16 3 19 5 16 4 1 15-6 15-8 15-12 9-11 8-13 6-13 6-19 1-3zm-88 106-1 3 8 37 8 24 10 21 10 17 10 14 9 10 7 8 6 7 8 7 13 11 14 10 18 11 16 8 15 7 24 8 25 6 16 2 14 1h40l9-1 2-6 1-9v-34l-2-10-6-16-7-9-10-10-11-7-5 1-24 9-24 6-10 2-10 1h-29l-18-3-21-6-19-9-16-11-11-9-16-16-12-16-15-25-11-26-3-8zm415 5-19 5-17 8-13 9-19 14-10 8-14 11-19 14-11 8-23 14-8 4 5 5 10 9 7 9 8 16 5 15 1 7v32l-2 14-9 39-8 28-12 35-8 22v3l5-1 14-10 12-11 8-8 12-17 8-14 6-10 13-28 10-23 22-55 8-19 11-23 11-21 8-12 12-17 12-13 9-8 15-10 35-14-4-3-17-6-26-6zm-431 7-1 1-2 19-1 27 2 27 6 34 5 16 8 21 8 16 9 15 11 14 11 12 15 14 19 13 21 12 20 8 24 7 27 4 29 2h12l44-4 11-2 4-5 8-24 1-11h-24l-30-1-23-3-38-10-22-8-20-9-17-10-16-11-13-10-10-9-21-21-10-13-10-15-10-17-10-22-11-33-4-24zm515 25-14 2-16 6-9 5-12 9-12 11-10 12-10 15-10 17-9 17-14 33-8 19-12 30-5 12v2l5-2 12-9 11-8 13-10 15-13 16-15 21-21 9-11 9-10 13-18 11-16 8-13 8-16 6-13 5-12v-3z"
        fill="#000" />
</svg>